<svg id="twitter" xmlns="http://www.w3.org/2000/svg" viewBox="0 0 64 64"><path d="M50.3 20.6c-1.3.6-2.8 1-4.3 1.2 1.6-1 2.7-2.3 3.3-4.2a14 14 0 0 1-4.8 1.8A7.2 7.2 0 0 0 39 17c-2.1 0-3.8.7-5.3 2.2a7.1 7.1 0 0 0-2.2 5.3l.2 1.7a21.8 21.8 0 0 1-15.5-7.8c-.7 1.2-1 2.5-1 3.8 0 2.7 1.1 4.8 3.3 6.3-1.1 0-2.3-.3-3.6-.9v.1c0 1.8.6 3.4 1.8 4.8a7.5 7.5 0 0 0 4.4 2.6l-1.8.3-1.4-.1a7.6 7.6 0 0 0 2.7 3.7c1.3 1 2.7 1.5 4.3 1.5a15.2 15.2 0 0 1-9.3 3.2l-1.8-.1a21.5 21.5 0 0 0 25-1.3 21.8 21.8 0 0 0 7.9-16.7v-1c1.3-1.1 2.6-2.4 3.6-4z"/></svg>